<svg width="155" height="52" viewBox="0 0 155 52" fill="none" xmlns="http://www.w3.org/2000/svg">
<path d="M1.25772 8.96236V6.09091H16.3444V8.96236H10.4999V25H7.10218V8.96236H1.25772ZM17.6324 25V10.8182H20.8731V13.1818H21.0209C21.2794 12.3632 21.7226 11.7322 22.3504 11.2891C22.9844 10.8397 23.7077 10.6151 24.5202 10.6151C24.7048 10.6151 24.911 10.6243 25.1388 10.6428C25.3727 10.6551 25.5666 10.6766 25.7204 10.7074V13.782C25.5789 13.7327 25.3542 13.6896 25.0464 13.6527C24.7448 13.6096 24.4524 13.5881 24.1693 13.5881C23.5599 13.5881 23.0121 13.7204 22.5258 13.9851C22.0457 14.2436 21.6672 14.6037 21.3902 15.0653C21.1132 15.527 20.9747 16.0594 20.9747 16.6626V25H17.6324ZM36.98 19.0355V10.8182H40.3224V25H37.0816V22.4794H36.9339C36.6138 23.2734 36.0875 23.9228 35.355 24.4276C34.6287 24.9323 33.7331 25.1847 32.6682 25.1847C31.7388 25.1847 30.9171 24.9785 30.203 24.5661C29.4952 24.1475 28.9412 23.5412 28.5411 22.7472C28.141 21.947 27.941 20.9806 27.941 19.848V10.8182H31.2833V19.331C31.2833 20.2296 31.5295 20.9437 32.0219 21.473C32.5144 22.0024 33.1607 22.267 33.9608 22.267C34.4533 22.267 34.9303 22.147 35.392 21.907C35.8536 21.6669 36.2322 21.3099 36.5276 20.8359C36.8292 20.3558 36.98 19.7557 36.98 19.0355ZM49.9454 25.277C48.5297 25.277 47.314 24.9661 46.2984 24.3445C45.2889 23.7228 44.5103 22.8641 43.9624 21.7685C43.4208 20.6667 43.1499 19.3987 43.1499 17.9645C43.1499 16.5241 43.4269 15.2531 43.9809 14.1513C44.5349 13.0433 45.3166 12.1816 46.3261 11.5661C47.3417 10.9444 48.542 10.6335 49.9269 10.6335C51.078 10.6335 52.0967 10.8459 52.983 11.2706C53.8756 11.6892 54.5865 12.2831 55.1159 13.0526C55.6452 13.8158 55.9468 14.7083 56.0207 15.7301H52.8261C52.6968 15.0469 52.3891 14.4775 51.9028 14.022C51.4227 13.5604 50.7794 13.3295 49.9731 13.3295C49.2899 13.3295 48.6897 13.5142 48.1727 13.8835C47.6556 14.2467 47.2525 14.7699 46.9632 15.4531C46.68 16.1364 46.5384 16.955 46.5384 17.9091C46.5384 18.8755 46.68 19.7064 46.9632 20.402C47.2463 21.0914 47.6433 21.6238 48.1542 21.9993C48.6713 22.3686 49.2776 22.5533 49.9731 22.5533C50.4655 22.5533 50.9056 22.4609 51.2934 22.2763C51.6874 22.0855 52.0167 21.8116 52.2813 21.4545C52.546 21.0975 52.7276 20.6636 52.8261 20.1527H56.0207C55.9407 21.156 55.6452 22.0455 55.1343 22.821C54.6234 23.5904 53.9279 24.1937 53.0477 24.6307C52.1675 25.0616 51.1334 25.277 49.9454 25.277ZM61.8121 20.5497L61.8028 16.5149H62.3383L67.4349 10.8182H71.3405L65.0713 17.7983H64.3788L61.8121 20.5497ZM58.7652 25V6.09091H62.1075V25H58.7652ZM67.6657 25L63.0493 18.5462L65.3021 16.1918L71.6636 25H67.6657ZM92.8325 12.1293C92.6786 11.6307 92.4662 11.1844 92.1954 10.7905C91.9307 10.3904 91.6106 10.0488 91.2352 9.76562C90.8659 9.48248 90.4411 9.27012 89.961 9.12855C89.4809 8.98082 88.9577 8.90696 88.3914 8.90696C87.3758 8.90696 86.471 9.16241 85.6769 9.6733C84.8829 10.1842 84.2581 10.9351 83.8026 11.9261C83.3533 12.911 83.1286 14.1113 83.1286 15.527C83.1286 16.955 83.3533 18.1645 83.8026 19.1555C84.252 20.1465 84.8767 20.9006 85.6769 21.4176C86.4771 21.9285 87.4066 22.1839 88.4653 22.1839C89.4255 22.1839 90.2565 21.9993 90.9582 21.63C91.666 21.2607 92.2108 20.7375 92.5924 20.0604C92.974 19.3771 93.1649 18.5769 93.1649 17.6598L93.9404 17.7798H88.8069V15.1023H96.4795V17.3736C96.4795 18.9924 96.1348 20.3928 95.4454 21.5746C94.756 22.7564 93.8081 23.6674 92.6017 24.3075C91.3952 24.9415 90.0103 25.2585 88.4468 25.2585C86.7049 25.2585 85.1753 24.8677 83.858 24.0859C82.547 23.2981 81.5221 22.1809 80.7835 20.7344C80.051 19.2817 79.6847 17.5582 79.6847 15.5639C79.6847 14.0374 79.9002 12.674 80.3311 11.4737C80.7681 10.2734 81.3775 9.25473 82.1592 8.41761C82.9409 7.57434 83.858 6.93418 84.9106 6.49716C85.9632 6.05398 87.108 5.83239 88.3453 5.83239C89.3917 5.83239 90.3673 5.98627 91.2721 6.29403C92.1769 6.59564 92.9802 7.02651 93.6819 7.58665C94.3898 8.14678 94.9714 8.81155 95.4269 9.58096C95.8824 10.3504 96.181 11.1998 96.3225 12.1293H92.8325ZM108.683 19.0355V10.8182H112.025V25H108.785V22.4794H108.637C108.317 23.2734 107.791 23.9228 107.058 24.4276C106.332 24.9323 105.436 25.1847 104.371 25.1847C103.442 25.1847 102.62 24.9785 101.906 24.5661C101.198 24.1475 100.644 23.5412 100.244 22.7472C99.8441 21.947 99.6441 20.9806 99.6441 19.848V10.8182H102.986V19.331C102.986 20.2296 103.233 20.9437 103.725 21.473C104.217 22.0024 104.864 22.267 105.664 22.267C106.156 22.267 106.633 22.147 107.095 21.907C107.557 21.6669 107.935 21.3099 108.231 20.8359C108.532 20.3558 108.683 19.7557 108.683 19.0355ZM119.543 25.2862C118.645 25.2862 117.835 25.1262 117.115 24.8061C116.401 24.4799 115.835 23.9998 115.416 23.3658C115.004 22.7318 114.798 21.95 114.798 21.0206C114.798 20.2204 114.945 19.5587 115.241 19.0355C115.536 18.5123 115.939 18.0938 116.45 17.7798C116.961 17.4659 117.537 17.2289 118.177 17.0689C118.823 16.9027 119.491 16.7827 120.18 16.7088C121.011 16.6226 121.685 16.5457 122.203 16.478C122.72 16.4041 123.095 16.2933 123.329 16.1456C123.569 15.9917 123.689 15.7547 123.689 15.4347V15.3793C123.689 14.6837 123.483 14.1451 123.07 13.7635C122.658 13.3819 122.064 13.1911 121.288 13.1911C120.47 13.1911 119.82 13.3696 119.34 13.7266C118.866 14.0836 118.546 14.5052 118.38 14.9915L115.259 14.5483C115.506 13.6866 115.912 12.9664 116.478 12.3878C117.044 11.803 117.737 11.366 118.555 11.0767C119.374 10.7812 120.279 10.6335 121.27 10.6335C121.953 10.6335 122.633 10.7135 123.31 10.8736C123.988 11.0336 124.606 11.2983 125.166 11.6676C125.726 12.0308 126.176 12.5263 126.514 13.1541C126.859 13.782 127.031 14.5668 127.031 15.5085V25H123.818V23.0518H123.707C123.504 23.4458 123.218 23.8151 122.849 24.1598C122.486 24.4983 122.027 24.7723 121.473 24.9815C120.925 25.1847 120.282 25.2862 119.543 25.2862ZM120.411 22.8303C121.082 22.8303 121.664 22.6979 122.156 22.4332C122.649 22.1624 123.027 21.8054 123.292 21.3622C123.563 20.919 123.698 20.4358 123.698 19.9126V18.2415C123.594 18.3277 123.415 18.4077 123.163 18.4815C122.917 18.5554 122.64 18.62 122.332 18.6754C122.024 18.7308 121.719 18.7801 121.418 18.8232C121.116 18.8662 120.854 18.9032 120.633 18.9339C120.134 19.0017 119.688 19.1125 119.294 19.2663C118.9 19.4202 118.589 19.6357 118.362 19.9126C118.134 20.1835 118.02 20.5343 118.02 20.9652C118.02 21.5807 118.245 22.0455 118.694 22.3594C119.143 22.6733 119.716 22.8303 120.411 22.8303ZM130.392 25V10.8182H133.633V13.1818H133.781C134.039 12.3632 134.482 11.7322 135.11 11.2891C135.744 10.8397 136.467 10.6151 137.28 10.6151C137.465 10.6151 137.671 10.6243 137.899 10.6428C138.132 10.6551 138.326 10.6766 138.48 10.7074V13.782C138.339 13.7327 138.114 13.6896 137.806 13.6527C137.505 13.6096 137.212 13.5881 136.929 13.5881C136.32 13.5881 135.772 13.7204 135.286 13.9851C134.805 14.2436 134.427 14.6037 134.15 15.0653C133.873 15.527 133.734 16.0594 133.734 16.6626V25H130.392ZM145.38 25.2493C144.265 25.2493 143.268 24.9631 142.388 24.3906C141.508 23.8182 140.812 22.9872 140.301 21.8977C139.791 20.8082 139.535 19.4848 139.535 17.9276C139.535 16.3518 139.794 15.0223 140.311 13.9389C140.834 12.8494 141.539 12.0277 142.425 11.4737C143.311 10.9136 144.299 10.6335 145.389 10.6335C146.22 10.6335 146.903 10.7751 147.438 11.0582C147.974 11.3352 148.399 11.6707 148.713 12.0646C149.027 12.4524 149.27 12.8187 149.442 13.1634H149.581V6.09091H152.932V25H149.645V22.7656H149.442C149.27 23.1103 149.02 23.4766 148.694 23.8643C148.368 24.246 147.937 24.5722 147.402 24.843C146.866 25.1139 146.192 25.2493 145.38 25.2493ZM146.312 22.5071C147.02 22.5071 147.623 22.3163 148.122 21.9347C148.62 21.5469 148.999 21.0083 149.257 20.3189C149.516 19.6295 149.645 18.8262 149.645 17.9091C149.645 16.992 149.516 16.1948 149.257 15.5178C149.005 14.8407 148.63 14.3144 148.131 13.9389C147.639 13.5634 147.032 13.3757 146.312 13.3757C145.567 13.3757 144.946 13.5696 144.447 13.9574C143.948 14.3452 143.573 14.8807 143.321 15.5639C143.068 16.2472 142.942 17.0289 142.942 17.9091C142.942 18.7955 143.068 19.5864 143.321 20.282C143.579 20.9714 143.958 21.5161 144.456 21.9162C144.961 22.3101 145.58 22.5071 146.312 22.5071Z" fill="white"/>
<path d="M3.09943 36.3636V48H1.69034V36.3636H3.09943ZM7.08381 42.75V48H5.7429V39.2727H7.03835V40.6364H7.15199C7.35653 40.1932 7.66714 39.8371 8.08381 39.5682C8.50047 39.2955 9.03835 39.1591 9.69744 39.1591C10.2884 39.1591 10.8054 39.2803 11.2486 39.5227C11.6918 39.7614 12.0365 40.125 12.2827 40.6136C12.5289 41.0985 12.652 41.7121 12.652 42.4545V48H11.3111V42.5455C11.3111 41.8598 11.133 41.3258 10.777 40.9432C10.4209 40.5568 9.93229 40.3636 9.31108 40.3636C8.88305 40.3636 8.50047 40.4564 8.16335 40.642C7.83002 40.8277 7.56676 41.0985 7.37358 41.4545C7.1804 41.8106 7.08381 42.2424 7.08381 42.75ZM21.2841 41.2273L20.0795 41.5682C20.0038 41.3674 19.892 41.1723 19.7443 40.983C19.6004 40.7898 19.4034 40.6307 19.1534 40.5057C18.9034 40.3807 18.5833 40.3182 18.1932 40.3182C17.6591 40.3182 17.214 40.4413 16.858 40.6875C16.5057 40.9299 16.3295 41.2386 16.3295 41.6136C16.3295 41.947 16.4508 42.2102 16.6932 42.4034C16.9356 42.5966 17.3144 42.7576 17.8295 42.8864L19.125 43.2045C19.9053 43.3939 20.4867 43.6837 20.8693 44.0739C21.2519 44.4602 21.4432 44.9583 21.4432 45.5682C21.4432 46.0682 21.2992 46.5152 21.0114 46.9091C20.7273 47.303 20.3295 47.6136 19.8182 47.8409C19.3068 48.0682 18.7121 48.1818 18.0341 48.1818C17.1439 48.1818 16.4072 47.9886 15.8239 47.6023C15.2405 47.2159 14.8712 46.6515 14.7159 45.9091L15.9886 45.5909C16.1098 46.0606 16.339 46.4129 16.6761 46.6477C17.017 46.8826 17.4621 47 18.0114 47C18.6364 47 19.1326 46.8674 19.5 46.6023C19.8712 46.3333 20.0568 46.0114 20.0568 45.6364C20.0568 45.3333 19.9508 45.0795 19.7386 44.875C19.5265 44.6667 19.2008 44.5114 18.7614 44.4091L17.3068 44.0682C16.5076 43.8788 15.9205 43.5852 15.5455 43.1875C15.1742 42.786 14.9886 42.2841 14.9886 41.6818C14.9886 41.1894 15.1269 40.7538 15.4034 40.375C15.6837 39.9962 16.0644 39.6989 16.5455 39.483C17.0303 39.267 17.5795 39.1591 18.1932 39.1591C19.0568 39.1591 19.7348 39.3485 20.2273 39.7273C20.7235 40.1061 21.0758 40.6061 21.2841 41.2273ZM28.9616 44.4318V39.2727H30.3026V48H28.9616V46.5227H28.8707C28.6662 46.9659 28.348 47.3428 27.9162 47.6534C27.4844 47.9602 26.9389 48.1136 26.2798 48.1136C25.7344 48.1136 25.2495 47.9943 24.8253 47.7557C24.401 47.5133 24.0677 47.1496 23.8253 46.6648C23.5829 46.1761 23.4616 45.5606 23.4616 44.8182V39.2727H24.8026V44.7273C24.8026 45.3636 24.9806 45.8712 25.3366 46.25C25.6965 46.6288 26.1548 46.8182 26.7116 46.8182C27.045 46.8182 27.384 46.733 27.7287 46.5625C28.0772 46.392 28.3688 46.1307 28.6037 45.7784C28.8423 45.4261 28.9616 44.9773 28.9616 44.4318ZM32.7585 48V39.2727H34.054V40.5909H34.1449C34.304 40.1591 34.5919 39.8087 35.0085 39.5398C35.4252 39.2708 35.8949 39.1364 36.4176 39.1364C36.5161 39.1364 36.6392 39.1383 36.7869 39.142C36.9347 39.1458 37.0464 39.1515 37.1222 39.1591V40.5227C37.0767 40.5114 36.9725 40.4943 36.8097 40.4716C36.6506 40.4451 36.482 40.4318 36.304 40.4318C35.8797 40.4318 35.5009 40.5208 35.1676 40.6989C34.8381 40.8731 34.5767 41.1155 34.3835 41.4261C34.1941 41.733 34.0994 42.0833 34.0994 42.4773V48H32.7585ZM41.2798 48.2045C40.7268 48.2045 40.2249 48.1004 39.7741 47.892C39.3234 47.6799 38.9654 47.375 38.7003 46.9773C38.4351 46.5758 38.3026 46.0909 38.3026 45.5227C38.3026 45.0227 38.401 44.6174 38.598 44.3068C38.795 43.9924 39.0582 43.7462 39.3878 43.5682C39.7173 43.3902 40.081 43.2576 40.4787 43.1705C40.8802 43.0795 41.2836 43.0076 41.6889 42.9545C42.2192 42.8864 42.6491 42.8352 42.9787 42.8011C43.312 42.7633 43.5545 42.7008 43.706 42.6136C43.8613 42.5265 43.9389 42.375 43.9389 42.1591V42.1136C43.9389 41.553 43.7855 41.1174 43.4787 40.8068C43.1757 40.4962 42.7154 40.3409 42.098 40.3409C41.4579 40.3409 40.956 40.4811 40.5923 40.7614C40.2287 41.0417 39.973 41.3409 39.8253 41.6591L38.5526 41.2045C38.7798 40.6742 39.0829 40.2614 39.4616 39.9659C39.8442 39.6667 40.2609 39.4583 40.7116 39.3409C41.1662 39.2197 41.6132 39.1591 42.0526 39.1591C42.3329 39.1591 42.6548 39.1932 43.0185 39.2614C43.3859 39.3258 43.7401 39.4602 44.081 39.6648C44.4257 39.8693 44.7116 40.178 44.9389 40.5909C45.1662 41.0038 45.2798 41.5568 45.2798 42.25V48H43.9389V46.8182H43.8707C43.7798 47.0076 43.6283 47.2102 43.4162 47.4261C43.2041 47.642 42.9219 47.8258 42.5696 47.9773C42.2173 48.1288 41.7874 48.2045 41.2798 48.2045ZM41.4844 47C42.0147 47 42.4616 46.8958 42.8253 46.6875C43.1927 46.4792 43.4692 46.2102 43.6548 45.8807C43.8442 45.5511 43.9389 45.2045 43.9389 44.8409V43.6136C43.8821 43.6818 43.7571 43.7443 43.5639 43.8011C43.3745 43.8542 43.1548 43.9015 42.9048 43.9432C42.6586 43.9811 42.4181 44.0152 42.1832 44.0455C41.9522 44.072 41.7647 44.0947 41.6207 44.1136C41.2723 44.1591 40.9465 44.233 40.6435 44.3352C40.3442 44.4337 40.1018 44.5833 39.9162 44.7841C39.7344 44.9811 39.6435 45.25 39.6435 45.5909C39.6435 46.0568 39.8158 46.4091 40.1605 46.6477C40.509 46.8826 40.9503 47 41.4844 47ZM49.0682 42.75V48H47.7273V39.2727H49.0227V40.6364H49.1364C49.3409 40.1932 49.6515 39.8371 50.0682 39.5682C50.4848 39.2955 51.0227 39.1591 51.6818 39.1591C52.2727 39.1591 52.7898 39.2803 53.233 39.5227C53.6761 39.7614 54.0208 40.125 54.267 40.6136C54.5133 41.0985 54.6364 41.7121 54.6364 42.4545V48H53.2955V42.5455C53.2955 41.8598 53.1174 41.3258 52.7614 40.9432C52.4053 40.5568 51.9167 40.3636 51.2955 40.3636C50.8674 40.3636 50.4848 40.4564 50.1477 40.642C49.8144 40.8277 49.5511 41.0985 49.358 41.4545C49.1648 41.8106 49.0682 42.2424 49.0682 42.75ZM60.6321 48.1818C59.8139 48.1818 59.1094 47.9886 58.5185 47.6023C57.9276 47.2159 57.473 46.6837 57.1548 46.0057C56.8366 45.3277 56.6776 44.553 56.6776 43.6818C56.6776 42.7955 56.8404 42.0133 57.1662 41.3352C57.4957 40.6534 57.9541 40.1212 58.5412 39.7386C59.1321 39.3523 59.8215 39.1591 60.6094 39.1591C61.223 39.1591 61.776 39.2727 62.2685 39.5C62.7609 39.7273 63.1643 40.0455 63.4787 40.4545C63.7931 40.8636 63.9882 41.3409 64.0639 41.8864H62.723C62.6207 41.4886 62.3935 41.1364 62.0412 40.8295C61.6927 40.5189 61.223 40.3636 60.6321 40.3636C60.1094 40.3636 59.651 40.5 59.2571 40.7727C58.867 41.0417 58.562 41.4223 58.3423 41.9148C58.1264 42.4034 58.0185 42.9773 58.0185 43.6364C58.0185 44.3106 58.1245 44.8977 58.3366 45.3977C58.5526 45.8977 58.8556 46.286 59.2457 46.5625C59.6397 46.839 60.1018 46.9773 60.6321 46.9773C60.9806 46.9773 61.2969 46.9167 61.581 46.7955C61.8651 46.6742 62.1056 46.5 62.3026 46.2727C62.4995 46.0455 62.6397 45.7727 62.723 45.4545H64.0639C63.9882 45.9697 63.8007 46.4337 63.5014 46.8466C63.206 47.2557 62.8139 47.5814 62.3253 47.8239C61.8404 48.0625 61.276 48.1818 60.6321 48.1818ZM69.6832 48.1818C68.8423 48.1818 68.117 47.9962 67.5071 47.625C66.901 47.25 66.4332 46.7273 66.1037 46.0568C65.7779 45.3826 65.6151 44.5985 65.6151 43.7045C65.6151 42.8106 65.7779 42.0227 66.1037 41.3409C66.4332 40.6553 66.8916 40.1212 67.4787 39.7386C68.0696 39.3523 68.759 39.1591 69.5469 39.1591C70.0014 39.1591 70.4503 39.2348 70.8935 39.3864C71.3366 39.5379 71.7401 39.7841 72.1037 40.125C72.4673 40.4621 72.7571 40.9091 72.973 41.4659C73.1889 42.0227 73.2969 42.7083 73.2969 43.5227V44.0909H66.5696V42.9318H71.9332C71.9332 42.4394 71.8348 42 71.6378 41.6136C71.4446 41.2273 71.1681 40.9223 70.8082 40.6989C70.4522 40.4754 70.0317 40.3636 69.5469 40.3636C69.0128 40.3636 68.5507 40.4962 68.1605 40.7614C67.7741 41.0227 67.4768 41.3636 67.2685 41.7841C67.0601 42.2045 66.956 42.6553 66.956 43.1364V43.9091C66.956 44.5682 67.0696 45.1269 67.2969 45.5852C67.5279 46.0398 67.848 46.3864 68.2571 46.625C68.6662 46.8598 69.1416 46.9773 69.6832 46.9773C70.0355 46.9773 70.3537 46.928 70.6378 46.8295C70.9257 46.7273 71.1738 46.5758 71.3821 46.375C71.5904 46.1705 71.7514 45.9167 71.8651 45.6136L73.1605 45.9773C73.0241 46.4167 72.795 46.803 72.473 47.1364C72.151 47.4659 71.7533 47.7235 71.2798 47.9091C70.8063 48.0909 70.2741 48.1818 69.6832 48.1818ZM89.3821 40H87.973C87.8897 39.5947 87.7438 39.2386 87.5355 38.9318C87.331 38.625 87.081 38.3674 86.7855 38.1591C86.4938 37.947 86.17 37.7879 85.8139 37.6818C85.4579 37.5758 85.0866 37.5227 84.7003 37.5227C83.9957 37.5227 83.3575 37.7008 82.7855 38.0568C82.2173 38.4129 81.7647 38.9375 81.4276 39.6307C81.0942 40.3239 80.9276 41.1742 80.9276 42.1818C80.9276 43.1894 81.0942 44.0398 81.4276 44.733C81.7647 45.4261 82.2173 45.9508 82.7855 46.3068C83.3575 46.6629 83.9957 46.8409 84.7003 46.8409C85.0866 46.8409 85.4579 46.7879 85.8139 46.6818C86.17 46.5758 86.4938 46.4186 86.7855 46.2102C87.081 45.9981 87.331 45.7386 87.5355 45.4318C87.7438 45.1212 87.8897 44.7652 87.973 44.3636H89.3821C89.276 44.9583 89.0829 45.4905 88.8026 45.9602C88.5223 46.4299 88.1738 46.8295 87.7571 47.1591C87.3404 47.4848 86.8726 47.733 86.3537 47.9034C85.8385 48.0739 85.2874 48.1591 84.7003 48.1591C83.7079 48.1591 82.8253 47.9167 82.0526 47.4318C81.2798 46.947 80.6719 46.2576 80.2287 45.3636C79.7855 44.4697 79.5639 43.4091 79.5639 42.1818C79.5639 40.9545 79.7855 39.8939 80.2287 39C80.6719 38.1061 81.2798 37.4167 82.0526 36.9318C82.8253 36.447 83.7079 36.2045 84.7003 36.2045C85.2874 36.2045 85.8385 36.2898 86.3537 36.4602C86.8726 36.6307 87.3404 36.8807 87.7571 37.2102C88.1738 37.536 88.5223 37.9337 88.8026 38.4034C89.0829 38.8693 89.276 39.4015 89.3821 40ZM91.6591 48V36.3636H95.5909C96.5 36.3636 97.2462 36.5189 97.8295 36.8295C98.4129 37.1364 98.8447 37.5587 99.125 38.0966C99.4053 38.6345 99.5455 39.2462 99.5455 39.9318C99.5455 40.6174 99.4053 41.2254 99.125 41.7557C98.8447 42.286 98.4148 42.7027 97.8352 43.0057C97.2557 43.3049 96.5152 43.4545 95.6136 43.4545H92.4318V42.1818H95.5682C96.1894 42.1818 96.6894 42.0909 97.0682 41.9091C97.4508 41.7273 97.7273 41.4697 97.8977 41.1364C98.072 40.7992 98.1591 40.3977 98.1591 39.9318C98.1591 39.4659 98.072 39.0587 97.8977 38.7102C97.7235 38.3617 97.4451 38.0928 97.0625 37.9034C96.6799 37.7102 96.1742 37.6136 95.5455 37.6136H93.0682V48H91.6591ZM97.1364 42.7727L100 48H98.3636L95.5455 42.7727H97.1364ZM101.893 36.3636H103.575L107.53 46.0227H107.666L111.621 36.3636H113.303V48H111.984V39.1591H111.871L108.234 48H106.962L103.325 39.1591H103.212V48H101.893V36.3636Z" fill="white" fill-opacity="0.7"/>
</svg>
